<?xml version="1.0" encoding="utf-8"?>
<!-- Generator: Adobe Illustrator 23.0.4, SVG Export Plug-In . SVG Version: 6.00 Build 0)  -->
<svg version="1.1" id="Layer_1" xmlns="http://www.w3.org/2000/svg" xmlns:xlink="http://www.w3.org/1999/xlink" x="0px" y="0px"
	 viewBox="0 0 978.8 550.5" style="enable-background:new 0 0 978.8 550.5;" xml:space="preserve">
<style type="text/css">
	.st0{fill:#FFFFFF;stroke:#000000;stroke-miterlimit:10;}
</style>
<image style="overflow:visible;" width="1305" height="734" xlink:href="conf-room.jpg"  transform="matrix(0.75 0 0 0.75 0 0)">
</image>
<path d="M0,408.5V0h162.3l12.4,10.2v306c0,0-4.5-0.8-8,1c-3.6,1.8-5.5,7.4-20.3,13.6c-6.2,2.6-13.9,6.5-20,6.8
	c-6.9,0.4-10.4-0.2-12.5,1.5c-5,4.1-3,10.6,2.4,12.4c4.2,1.4,11.1-2.6,14.6,3.3c3.5,5.9,17.5,69.8,16.5,76.3l-25.1,17.5
	c0,0-5.7-14.2-12.1-32.4c-7.3-21.1-14.2-50.3-27.1-51.1c-11.2-0.7-20.5,12.6-33.9,20C29.8,395.6,0,408.5,0,408.5z"/>
<path class="st0" d="M-99.7,364.6"/>
<path d="M0,529.7l17.9-13.6c-1.4-23.6-12.5-52.6-17.9-74V529.7z"/>
</svg>
