<?xml version="1.0" encoding="utf-8"?>
<!-- Generator: Adobe Illustrator 23.0.4, SVG Export Plug-In . SVG Version: 6.00 Build 0)  -->
<svg version="1.1" xmlns="http://www.w3.org/2000/svg" xmlns:xlink="http://www.w3.org/1999/xlink" x="0px" y="0px"
	 viewBox="0 0 1080 672" style="enable-background:new 0 0 1080 672;" xml:space="preserve">
<style type="text/css">
	.st0{display:none;}
</style>
<g id="Layer_1" class="st0">
	
		<image style="display:inline;overflow:visible;" width="4500" height="2800" xlink:href="conf-room3.jpg"  transform="matrix(0.24 0 0 0.24 0 0)">
	</image>
</g>
<g id="Layer_2">
	<path d="M178.5,420.6l-1.3-12.6c0,0-9.8-18.7-13-23.9c-3.3-5.2,1.1-7.4,1.1-7.4s22.6-4.6,26.7-4.8s25-2.4,26.1-2.4s6.1,2,11.5,10
		c5.4,8,8.5,14.6,8.5,14.6v-11.7c0,0-4.6-7.2-5.2-8.7c-0.7-1.5-2.2-5,0.7-5.9c2.8-0.9,4.6-1.3,4.6-1.3v-56.7h-2l2-2v-19.3l-8.9-1.1
		c0,0,6.1-2,7.6-2h0.8v-1.9l-1.1-1.4h1.5v-2.9l-5.1-0.7l5.1-0.3v-1.9c0,0-5.3-2.8-7.1-6.8s-0.2-3.7-0.8-5.9
		c-0.7-2.3-0.5-2.8-0.5-2.8s0.8,0.5,2.4,0.6c1.5,0.1,3.9,0.2,5.5,0.9l0.6-233L211.3,6.6h-18.9L184.6,0H0v403c0,0,10.6-3.9,13.6-3
		s12.2,6.3,20.2,18.2s11.9,18.9,12.6,21.1s2,9.8,2,9.8l18,120.5l14.6-1.1c0,0-5.2-1.3-5.2-5.4c0-4.1,3.3-7,5-7
		c1.7,0,6.7,0.2,6.7,0.2l2.6-2.2L73.6,443.4l-0.9-6.5l-0.4-2.8c0,0-7.2-15-12.2-22.2c-5-7.2-7-13-4.8-15.4c2.2-2.4,23.9-6.3,30-7.4
		s36.9-5,39.5-5.2c2.6-0.2,7.8-0.9,8.9-0.9s8.3,4.1,11.7,8.7c3.5,4.6,12.4,18.9,13.2,21.3s2.6,12.2,2.6,12.2l13,89.7l-0.2,3
		l15.2-0.7l0.7-6.5c0,0-7.2,0.9-8.5-0.4c-1.3-1.3-1.7-2.8-1.7-4.6s1.1-3.9,2.8-4.1c1.7-0.2,7-0.7,7-0.7L178.5,420.6z"/>
</g>
</svg>
